<?xml version="1.0" encoding="UTF-8"?>
<svg width="512px" height="512px" viewBox="0 0 512 512" version="1.1" xmlns="http://www.w3.org/2000/svg" xmlns:xlink="http://www.w3.org/1999/xlink">
    <!-- Generator: Sketch 49.3 (51167) - http://www.bohemiancoding.com/sketch -->
    <title>001-robot</title>
    <desc>Created with Sketch.</desc>
    <defs></defs>
    <g id="Page-1" stroke="none" stroke-width="1" fill="none" fill-rule="evenodd">
        <g id="001-robot" fill-rule="nonzero">
            <rect id="Rectangle-path" fill-opacity="0.8" fill="#FFFFFF" x="137.029" y="78" width="30" height="100"></rect>
            <path d="M152.027,93 C127.214,93 107.027,72.813 107.027,48 C107.027,23.187 127.214,3 152.027,3 C176.84,3 197.027,23.187 197.027,48 C197.027,72.813 176.84,93 152.027,93 Z" id="Shape" fill-opacity="0.8" fill="#FFFFFF"></path>
            <path d="M361.027,371 L91.027,371 C66.214,371 46.027,350.813 46.027,326 L46.027,206 C46.027,181.187 66.214,161 91.027,161 L411.027,161 C435.84,161 456.027,181.187 456.027,206 L456.027,276 C456.027,328.383 413.41,371 361.027,371 Z" id="Shape" fill-opacity="0.8" fill="#FFFFFF"></path>
            <path d="M411.027,161 L256.027,161 L256.027,371 L361.027,371 C413.41,371 456.027,328.383 456.027,276 L456.027,206 C456.027,181.187 435.84,161 411.027,161 Z" id="Shape" fill-opacity="0.9" fill="#FFFFFF"></path>
            <rect id="Rectangle-path" fill-opacity="0.8" fill="#9844F7" opacity="0.8" transform="translate(309.030301, 29.002987) rotate(-135.000000) translate(-309.030301, -29.002987) " x="284.990532" y="14.0031309" width="48.0795389" height="29.9997123"></rect>
            <rect id="Rectangle-path" fill-opacity="0.8" fill="#9844F7" transform="translate(312.089896, 25.941255) rotate(-135.000000) translate(-312.089896, -25.941255) " x="288.050126" y="15.2728571" width="48.0795389" height="21.3367954"></rect>
            <path d="M424.245,242 C400.765,242 378.698,232.777 362.111,216.029 L272.026,125.067 L272.026,78.103 L349.376,0 L396.204,0 L486.378,91.05 C520.502,125.507 520.502,181.572 486.378,216.028 C469.791,232.776 447.725,242 424.245,242 Z" id="Shape" fill="#FFFFFF"></path>
            <path d="M349.379,0 L310.452,39.306 L486.771,215.625 C520.5,181.136 520.374,125.374 486.381,91.05 L396.207,0 L349.379,0 Z" id="Shape" fill-opacity="0.8" fill="#FFFFFF"></path>
            <path d="M396.803,158.381 C386.282,158.381 376.398,154.253 368.973,146.755 L359.567,137.257 C344.341,121.884 344.341,96.87 359.568,81.497 L418.242,22.251 L483.089,87.73 L424.633,146.755 C417.207,154.253 407.324,158.381 396.803,158.381 Z" id="Shape" fill="#29B82E"></path>
            <path d="M359.568,81.498 C358.355,82.723 357.249,84.015 356.229,85.353 L420.925,150.049 C422.216,149.034 423.459,147.943 424.634,146.756 L483.089,87.73 L418.241,22.251 L359.568,81.498 Z" id="Shape" fill-opacity="0.8" fill="#29B82E"></path>
            <path d="M84.059,396.647 L27.396,340.1 L105.316,262.34 L161.979,318.887 L84.059,396.647 Z M69.866,340.101 L84.059,354.265 L123.759,314.638 L109.566,300.474 L69.866,340.101 Z" id="Shape" fill-opacity="0.8" fill="#FFFFFF"></path>
            <path d="M113.111,503.42 L27.397,417.882 L84.06,361.335 L169.774,446.873 L113.111,503.42 Z M63.033,411.049 L113.111,461.038 L127.304,446.874 L77.226,396.885 L63.033,411.049 Z" id="Shape" fill-opacity="0.8" fill="#FFFFFF" opacity="0.8"></path>
            <path d="M93.78,512 L93.78,497 C93.78,455.645 127.48,422 168.904,422 C210.328,422 244.028,455.645 244.028,497 L244.028,512 L93.78,512 Z" id="Shape" fill-opacity="0.9" fill="#FFFFFF"></path>
            <path d="M144.287,324.973 C132.752,324.973 121.216,320.591 112.434,311.827 C103.916,303.327 99.225,292.023 99.225,279.997 C99.225,267.971 103.916,256.666 112.434,248.166 C129.997,230.638 158.576,230.638 176.139,248.166 C184.657,256.666 189.348,267.971 189.348,279.997 C189.348,292.022 184.657,303.327 176.139,311.827 C167.358,320.591 155.823,324.973 144.287,324.973 Z" id="Shape" fill-opacity="0.9" fill="#FFFFFF"></path>
            <path d="M45.089,423.968 C33.553,423.968 22.018,419.586 13.236,410.822 C4.718,402.321 0.027,391.017 0.027,378.991 C0.027,366.966 4.718,355.661 13.236,347.161 C30.799,329.632 59.378,329.633 76.942,347.161 C85.46,355.661 90.151,366.966 90.151,378.991 C90.151,391.017 85.46,402.321 76.942,410.822 C68.16,419.586 56.624,423.968 45.089,423.968 Z" id="Shape" fill="#FFFFFF" opacity="0.8"></path>
            <path d="M304.059,396.647 L247.396,340.1 L325.316,262.34 L381.979,318.887 L304.059,396.647 Z M289.866,340.101 L304.059,354.265 L343.759,314.638 L329.566,300.474 L289.866,340.101 Z" id="Shape" fill-opacity="0.8" fill="#FFFFFF"></path>
            <path d="M333.111,503.42 L247.397,417.882 L304.06,361.335 L389.774,446.873 L333.111,503.42 Z M283.033,411.049 L333.111,461.038 L347.304,446.874 L297.226,396.885 L283.033,411.049 Z" id="Shape" fill-opacity="0.8" fill="#FFFFFF"></path>
            <path d="M313.78,512 L313.78,497 C313.78,455.645 347.48,422 388.904,422 C430.328,422 464.028,455.645 464.028,497 L464.028,512 L313.78,512 Z" id="Shape" fill-opacity="0.9" fill="#FFFFFF"></path>
            <path d="M364.287,324.973 C352.752,324.973 341.216,320.591 332.434,311.827 C323.916,303.327 319.225,292.023 319.225,279.997 C319.225,267.971 323.916,256.666 332.434,248.166 C349.997,230.638 378.576,230.638 396.139,248.166 C404.657,256.666 409.348,267.971 409.348,279.997 C409.348,292.022 404.657,303.327 396.139,311.827 C387.358,320.591 375.823,324.973 364.287,324.973 Z" id="Shape" fill-opacity="0.8" fill="#FFFFFF"></path>
            <path d="M265.089,423.968 C253.553,423.968 242.018,419.586 233.236,410.822 C224.718,402.321 220.027,391.017 220.027,378.991 C220.027,366.966 224.718,355.661 233.236,347.161 C250.799,329.632 279.378,329.633 296.942,347.161 C305.46,355.661 310.151,366.966 310.151,378.991 C310.151,391.017 305.46,402.321 296.942,410.822 C288.16,419.586 276.624,423.968 265.089,423.968 Z" id="Shape" fill="#FFFFFF" opacity="0.9"></path>
            <path d="M296.941,347.161 C285.847,336.089 270.359,332.019 256.026,334.935 L256.026,423.047 C259.014,423.655 262.05,423.967 265.088,423.967 C276.623,423.967 288.159,419.585 296.941,410.821 C305.459,402.321 310.15,391.016 310.15,378.99 C310.15,366.966 305.459,355.662 296.941,347.161 Z" id="Shape" fill-opacity="0.9" fill="#FFFFFF"></path>
        </g>
    </g>
</svg>