<?xml version="1.0" encoding="iso-8859-1"?>
<!-- Generator: Adobe Illustrator 19.0.0, SVG Export Plug-In . SVG Version: 6.00 Build 0)  -->
<svg version="1.1" id="Capa_1" xmlns="http://www.w3.org/2000/svg" xmlns:xlink="http://www.w3.org/1999/xlink" x="0px" y="0px"
	 viewBox="0 0 512 512" style="enable-background:new 0 0 512 512;" xml:space="preserve">
<rect x="181" y="287" style="fill:#FF7A53;" width="30" height="40"/>
<path style="fill:#00A6FF;" d="M163,342H83v-90h80V342z"/>
<path style="fill:#FF4F19;" d="M311,342h-80v-40c0-22.056,17.944-40,40-40s40,17.944,40,40V342z"/>
<path style="fill:#E70020;" d="M271,262c-5.303,0-10.364,1.047-15,2.929V342h55v-40C311,279.944,293.056,262,271,262z"/>
<path style="fill:#AEADB3;" d="M326,392H66v-80h260V392z"/>
<path style="fill:#78777F;" d="M326,392h-70v-80h70V392z"/>
<rect x="137" y="173" style="fill:#FFDB2D;" width="30" height="60"/>
<path style="fill:#78777F;" d="M162.213,188h-20.426L113,159.213V70h78v89.213L162.213,188z"/>
<path style="fill:#D9D9DB;" d="M261.699,100h-170V20h170V100z"/>
<path style="fill:#C8C6CD;" d="M512,435H402V175h110V435z"/>
<path style="fill:#D9D9DB;" d="M437,512H75c-41.355,0-75-33.645-75-75s33.645-75,75-75h362c41.355,0,75,33.645,75,75
	S478.355,512,437,512z"/>
<path style="fill:#C8C6CD;" d="M437,362H256v150h181c41.355,0,75-33.645,75-75S478.355,362,437,362z"/>
<g>
	<path style="fill:#AEADB3;" d="M256,482c-24.813,0-45-20.187-45-45s20.187-45,45-45s45,20.187,45,45S280.813,482,256,482z"/>
	<path style="fill:#AEADB3;" d="M96,482c-24.813,0-45-20.187-45-45s20.187-45,45-45s45,20.187,45,45S120.813,482,96,482z"/>
</g>
<g>
	<path style="fill:#78777F;" d="M406,482c-24.813,0-45-20.187-45-45s20.187-45,45-45s45,20.187,45,45S430.813,482,406,482z"/>
	<path style="fill:#78777F;" d="M370.819,201.389l-96.71-96.711l56.568-56.569l96.71,96.711L370.819,201.389z"/>
</g>
<path style="fill:#FEC000;" d="M286.301,120c-16.026,0-31.094-6.241-42.426-17.574c-11.333-11.332-17.574-26.4-17.574-42.426
	s6.241-31.094,17.574-42.427C255.207,6.241,270.274,0,286.301,0s31.094,6.241,42.426,17.574
	c11.333,11.332,17.574,26.4,17.574,42.426s-6.241,31.094-17.574,42.427C317.395,113.759,302.327,120,286.301,120z"/>
<path style="fill:#78777F;" d="M256,392v90c24.813,0,45-20.187,45-45S280.813,392,256,392z"/>
<path style="fill:#FFDB2D;" d="M256,8.197c-4.37,2.566-8.447,5.698-12.125,9.376c-11.333,11.333-17.574,26.4-17.574,42.427
	s6.241,31.094,17.574,42.426c3.678,3.678,7.755,6.81,12.125,9.376V8.197z"/>
<path style="fill:#FEC000;" d="M417,250c-33.084,0-60-26.916-60-60s26.916-60,60-60s60,26.916,60,60S450.084,250,417,250z"/>
<path style="fill:#78777F;" d="M437,392c24.813,0,45,20.187,45,45s-20.187,45-45,45H75c-24.813,0-45-20.187-45-45s20.187-45,45-45
	H437 M437,362H75c-41.355,0-75,33.645-75,75s33.645,75,75,75h362c41.355,0,75-33.645,75-75S478.355,362,437,362L437,362z"/>
<path style="fill:#57555C;" d="M437,362H256v30h181c24.813,0,45,20.187,45,45s-20.187,45-45,45H256v30h181c41.355,0,75-33.645,75-75
	S478.355,362,437,362z"/>
<g>
</g>
<g>
</g>
<g>
</g>
<g>
</g>
<g>
</g>
<g>
</g>
<g>
</g>
<g>
</g>
<g>
</g>
<g>
</g>
<g>
</g>
<g>
</g>
<g>
</g>
<g>
</g>
<g>
</g>
</svg>
