<?xml version="1.0" encoding="iso-8859-1"?>
<!-- Generator: Adobe Illustrator 19.0.0, SVG Export Plug-In . SVG Version: 6.00 Build 0)  -->
<svg xmlns="http://www.w3.org/2000/svg" xmlns:xlink="http://www.w3.org/1999/xlink" version="1.1" id="Capa_1" x="0px" y="0px" viewBox="0 0 512 512" style="enable-background:new 0 0 512 512;" xml:space="preserve" width="512px" height="512px">
<g>
	<g>
		<path d="M256,0C168.552,0,97.409,71.143,97.409,158.591v289.37c0,33.731,26.018,61.808,59.223,63.918    c1.241,0.08,2.535,0.12,3.846,0.12c16.551,0,25.74-6.45,32.443-11.355v-100.19c0-8.457,6.856-15.313,15.313-15.313    c8.457,0,15.313,6.856,15.313,15.313v100.189C230.25,505.549,239.439,512,255.993,512c16.553,0,25.741-6.45,32.444-11.356V400.454    c0-8.457,6.856-15.313,15.313-15.313c8.457,0,15.313,6.856,15.313,15.313v100.186c6.703,4.905,15.894,11.358,32.451,11.358    c1.29,0,2.58-0.04,3.847-0.119c33.212-2.118,59.231-30.196,59.231-63.919V158.591C414.59,71.143,343.447,0,256,0z     M184.913,135.264c-8.585,0-14.942-7.017-15.313-15.313c-0.371-8.27,7.303-15.313,15.313-15.313    c8.585,0,14.942,7.016,15.313,15.313C200.597,128.22,192.923,135.264,184.913,135.264z M295.017,202.741    c-10.274,8.573-22.951,12.872-35.63,12.872c-12.345,0-24.689-4.073-34.824-12.242c-6.585-5.307-7.621-14.947-2.314-21.531    c5.307-6.586,14.947-7.621,21.532-2.315c9.212,7.426,22.509,7.297,31.615-0.298c6.491-5.42,16.149-4.548,21.568,1.946    C302.382,187.666,301.511,197.322,295.017,202.741z M327.093,135.264c-8.585,0-14.942-7.017-15.313-15.313    c-0.371-8.27,7.303-15.313,15.313-15.313c8.585,0,14.942,7.016,15.313,15.313C342.777,128.22,335.103,135.264,327.093,135.264z" fill="#FFFFFF"/>
	</g>
</g>
<g>
</g>
<g>
</g>
<g>
</g>
<g>
</g>
<g>
</g>
<g>
</g>
<g>
</g>
<g>
</g>
<g>
</g>
<g>
</g>
<g>
</g>
<g>
</g>
<g>
</g>
<g>
</g>
<g>
</g>
</svg>
