<?xml version="1.0" encoding="iso-8859-1"?>
<!-- Generator: Adobe Illustrator 19.0.0, SVG Export Plug-In . SVG Version: 6.00 Build 0)  -->
<svg xmlns="http://www.w3.org/2000/svg" xmlns:xlink="http://www.w3.org/1999/xlink" version="1.1" id="Capa_1" x="0px" y="0px" viewBox="0 0 512.001 512.001" style="enable-background:new 0 0 512.001 512.001;" xml:space="preserve" width="512px" height="512px">
<g>
	<g>
		<polygon points="366.779,368.557 272.316,368.557 272.316,407.565 378.829,407.565   " fill="#FFFFFF"/>
	</g>
</g>
<g>
	<g>
		<path d="M311.433,189.388L327.84,16.673c0.653-6.865-3.388-13.31-9.85-15.716c-6.463-2.404-13.734-0.168-17.727,5.452    L181.636,173.368c-1.166,1.641-1.995,3.497-2.44,5.461L143.16,338.096h214.21L311.433,189.388z" fill="#FFFFFF"/>
	</g>
</g>
<g>
	<g>
		<polygon points="136.269,368.557 127.442,407.565 241.855,407.565 241.855,368.557   " fill="#FFFFFF"/>
	</g>
</g>
<g>
	<g>
		<path d="M494.715,481.54H401.68l-13.442-43.515H120.551l-9.846,43.515H17.286c-8.411,0-15.23,6.819-15.23,15.23    c0,8.411,6.819,15.23,15.23,15.23h477.429c8.411,0,15.23-6.819,15.23-15.23C509.945,488.359,503.126,481.54,494.715,481.54z" fill="#FFFFFF"/>
	</g>
</g>
<g>
</g>
<g>
</g>
<g>
</g>
<g>
</g>
<g>
</g>
<g>
</g>
<g>
</g>
<g>
</g>
<g>
</g>
<g>
</g>
<g>
</g>
<g>
</g>
<g>
</g>
<g>
</g>
<g>
</g>
</svg>
