<?xml version="1.0" encoding="iso-8859-1"?>
<!-- Generator: Adobe Illustrator 19.0.0, SVG Export Plug-In . SVG Version: 6.00 Build 0)  -->
<svg version="1.1" id="Capa_1" xmlns="http://www.w3.org/2000/svg" xmlns:xlink="http://www.w3.org/1999/xlink" x="0px" y="0px"
	 viewBox="0 0 512 512" style="enable-background:new 0 0 512 512;" xml:space="preserve">
<path style="fill:#57555C;" d="M373.213,512H241V0h142.213L472,88.787V310.36l-50,106v46.853L373.213,512z"/>
<path style="fill:#FED2A4;" d="M256,512h-45.891c-45.638,0-87.628-24.854-109.584-64.863L40,336.845V165C40,74.019,114.019,0,205,0
	h51V512z"/>
<polygon style="fill:#C8C6CD;" points="404,137 374,137 374,100 307,100 307,44 337,44 337,70 404,70 "/>
<path style="fill:#57555C;" d="M166,281c-30.327,0-55-24.673-55-55s24.673-55,55-55s55,24.673,55,55S196.327,281,166,281z"/>
<g>
	<circle style="fill:#78777F;" cx="166" cy="226" r="15"/>
	<path style="fill:#78777F;" d="M216.394,167.606C203.2,154.413,185.658,147.147,167,147.147s-36.2,7.266-49.394,20.459
		l-21.213-21.213c18.859-18.86,43.935-29.247,70.606-29.247s51.747,10.387,70.606,29.247L216.394,167.606z"/>
</g>
<path style="fill:#B38A65;" d="M256,406h-25.099c-42.96,0-82.794-23.225-103.955-60.611l26.107-14.777
	C168.901,358.608,198.73,376,230.901,376H256V406z"/>
<rect x="256" y="376" style="fill:#C8C6CD;" width="132" height="30"/>
<g>
	<rect x="291" y="356" style="fill:#78777F;" width="30" height="70"/>
	<rect x="341" y="356" style="fill:#78777F;" width="30" height="70"/>
	<polygon style="fill:#78777F;" points="340,334 256,334 256,304 310,304 310,267 340,267 	"/>
	<polygon style="fill:#78777F;" points="382,184 352,184 352,123 472,123 472,153 382,153 	"/>
	<polygon style="fill:#78777F;" points="331,159 256,159 256,129 301,129 301,108 331,108 	"/>
	<polygon style="fill:#78777F;" points="450,346 374,346 374,296 404,296 404,316 450,316 	"/>
</g>
<path style="fill:#FEC000;" d="M401,281H291V171h110V281z"/>
<circle style="fill:#FF9A00;" cx="346" cy="226" r="15"/>
<g>
</g>
<g>
</g>
<g>
</g>
<g>
</g>
<g>
</g>
<g>
</g>
<g>
</g>
<g>
</g>
<g>
</g>
<g>
</g>
<g>
</g>
<g>
</g>
<g>
</g>
<g>
</g>
<g>
</g>
</svg>
